<?xml version="1.0" encoding="UTF-8"?>
<svg id="Layer_1" data-name="Layer 1" xmlns="http://www.w3.org/2000/svg" xmlns:xlink="http://www.w3.org/1999/xlink" viewBox="0 0 1036.67 1036.67">
  <defs>
    <style>
      .cls-1 {
        fill: url(#linear-gradient-2);
      }

      .cls-2 {
        fill: url(#New_Gradient_Swatch_2);
        filter: url(#drop-shadow-1);
      }

      .cls-3 {
        fill: url(#linear-gradient);
      }
    </style>
    <linearGradient id="linear-gradient" x1="524.08" y1="1009.69" x2="524.08" y2="22.81" gradientUnits="userSpaceOnUse">
      <stop offset="0" stop-color="#04f"/>
      <stop offset="1" stop-color="#3cf"/>
    </linearGradient>
    <radialGradient id="New_Gradient_Swatch_2" data-name="New Gradient Swatch 2" cx="518.33" cy="518.33" fx="518.33" fy="518.33" r="518.33" gradientUnits="userSpaceOnUse">
      <stop offset=".95" stop-color="#f2f2f2"/>
      <stop offset="1" stop-color="#cccbcb"/>
    </radialGradient>
    <filter id="drop-shadow-1" filterUnits="userSpaceOnUse">
      <feOffset dx="0" dy="0"/>
      <feGaussianBlur result="blur" stdDeviation="3.6"/>
      <feFlood flood-color="#000" flood-opacity=".15"/>
      <feComposite in2="blur" operator="in"/>
      <feComposite in="SourceGraphic"/>
    </filter>
    <linearGradient id="linear-gradient-2" x1="521.21" y1="736.3" x2="521.21" y2="298.29" gradientUnits="userSpaceOnUse">
      <stop offset="0" stop-color="#000"/>
      <stop offset="1" stop-color="#555"/>
    </linearGradient>
  </defs>
  <circle class="cls-3" cx="524.08" cy="516.25" r="493.44"/>
  <path class="cls-2" d="M518.33,0C232.07,0,0,232.07,0,518.33s232.07,518.33,518.33,518.33,518.33-232.07,518.33-518.33S804.6,0,518.33,0Zm245.29,112.4c70.25,42.06,121.71,93.73,163.48,164.15,29.59,49.89,48.57,100.97,58.73,158.08,2.53,14.23-.29,24.27-9.87,35.1-55.25,62.46-116.47,113.55-187.82,156.73-6.45,3.91-14.38-2.04-12.43-9.33,43.6-163.37,35.13-336.27-24.24-494.59-2.78-7.42,5.35-14.2,12.15-10.13Zm-471.86-7.49c71.55-39.81,142.03-58.54,223.9-59.5,58-.68,111.73,8.42,166.27,28.18,13.59,4.92,20.87,12.39,25.46,26.09,26.47,79.08,40.1,157.65,41.82,241.02,.16,7.54-8.96,11.43-14.3,6.1-119.68-119.45-273.65-198.56-440.45-226.31-7.82-1.3-9.63-11.73-2.7-15.59ZM49.35,509.8c1.3-81.86,20.32-152.27,60.42-223.65,28.41-50.57,63.16-92.55,107.54-129.9,11.06-9.31,21.16-11.88,35.33-9,81.72,16.62,156.58,44.09,229.64,84.29,6.61,3.64,5.42,13.47-1.86,15.43-163.28,43.92-308.79,137.71-416.21,268.29-5.04,6.12-14.98,2.47-14.85-5.46Zm229.44,412.38c-70.25-42.06-121.71-93.73-163.48-164.15-29.59-49.89-48.57-100.97-58.73-158.08-2.53-14.23,.29-24.27,9.87-35.09,55.25-62.46,116.47-113.55,187.82-156.73,6.45-3.91,14.38,2.04,12.43,9.33-43.6,163.37-35.13,336.27,24.24,494.59,2.78,7.43-5.35,14.2-12.15,10.13Zm471.86,7.49c-71.55,39.81-142.03,58.54-223.9,59.5-58,.68-111.73-8.42-166.27-28.18-13.59-4.92-20.87-12.39-25.46-26.09-26.47-79.08-40.1-157.65-41.82-241.02-.16-7.54,8.96-11.43,14.3-6.1,119.68,119.45,273.65,198.56,440.45,226.31,7.82,1.3,9.63,11.73,2.7,15.59Zm74.46-51.34c-11.06,9.31-21.16,11.88-35.33,9-81.72-16.62-156.58-44.09-229.64-84.29-6.61-3.64-5.42-13.47,1.86-15.43,163.28-43.92,308.79-137.71,416.21-268.29,5.04-6.12,14.97-2.47,14.85,5.46-1.3,81.86-20.32,152.27-60.42,223.65-28.41,50.57-63.16,92.55-107.54,129.9Z"/>
  <path class="cls-1" d="M581.38,305.88c-10.25-7.13-19.54-9.04-31.78-6.55-63.32,12.87-122.94,32.64-181.4,60.15-11.3,5.32-17.6,12.4-21.57,24.24-20.51,61.27-33.2,122.78-38.61,187.17-1.05,12.44,1.94,21.45,10.21,30.8,42.8,48.4,89.73,90.15,142.79,127.02,10.25,7.13,19.55,9.04,31.78,6.55,63.32-12.87,122.93-32.64,181.4-60.15,11.3-5.32,17.6-12.4,21.57-24.24,20.51-61.27,33.2-122.78,38.61-187.17,1.05-12.44-1.94-21.45-10.21-30.8-42.8-48.4-89.73-90.15-142.79-127.02Z"/>
</svg>